<svg width="34" height="34" viewBox="0 0 34 34" fill="none" xmlns="http://www.w3.org/2000/svg">
<path fill-rule="evenodd" clip-rule="evenodd" d="M33.6666 17C33.6666 26.2047 26.2047 33.6666 16.9999 33.6666C7.79517 33.6666 0.333252 26.2047 0.333252 17C0.333252 7.79524 7.79517 0.333313 16.9999 0.333313C26.2047 0.333313 33.6666 7.79524 33.6666 17ZM22.5979 22.5978C22.1097 23.086 21.3183 23.086 20.8301 22.5978L16.9999 18.7676L13.1698 22.5978C12.6816 23.086 11.8901 23.086 11.402 22.5978C10.9138 22.1097 10.9138 21.3182 11.402 20.8301L15.2322 16.9999L11.402 13.1697C10.9139 12.6816 10.9139 11.8901 11.402 11.402C11.8902 10.9138 12.6816 10.9138 13.1698 11.402L16.9999 15.2321L20.8301 11.402C21.3182 10.9138 22.1097 10.9138 22.5978 11.402C23.086 11.8901 23.086 12.6816 22.5978 13.1697L18.7677 16.9999L22.5979 20.83C23.086 21.3182 23.086 22.1097 22.5979 22.5978Z" fill="white"/>
</svg>
