<svg width="40" height="40" viewBox="0 0 40 40" fill="none" xmlns="http://www.w3.org/2000/svg">
<path fill-rule="evenodd" clip-rule="evenodd" d="M18.4091 5H21.5909C23.3482 5 24.7727 6.34315 24.7727 8C24.7727 9.89603 26.8014 11.1015 28.4667 10.195L28.6358 10.1029C30.1577 9.27447 32.1036 9.7661 32.9823 11.201L34.5732 13.799C35.4518 15.2339 34.9304 17.0687 33.4086 17.8971C31.7425 18.8041 31.7425 21.1959 33.4086 22.1029C34.9304 22.9313 35.4518 24.7661 34.5732 26.201L32.9823 28.799C32.1036 30.2339 30.1577 30.7255 28.6358 29.8971L28.4667 29.805C26.8014 28.8985 24.7727 30.104 24.7727 32C24.7727 33.6569 23.3482 35 21.5909 35H18.4091C16.6518 35 15.2273 33.6569 15.2273 32C15.2273 30.104 13.1986 28.8985 11.5333 29.8051L11.3642 29.8971C9.84235 30.7256 7.89637 30.2339 7.01773 28.799L5.42682 26.201C4.54818 24.7661 5.0696 22.9313 6.59145 22.1029C8.25752 21.196 8.25752 18.804 6.59145 17.8971C5.0696 17.0687 4.54818 15.2339 5.42682 13.799L7.01773 11.201C7.89637 9.76607 9.84235 9.27445 11.3642 10.1029L11.5333 10.1949C13.1986 11.1015 15.2273 9.89602 15.2273 8C15.2273 6.34315 16.6518 5 18.4091 5ZM20 25C22.7614 25 25 22.7614 25 20C25 17.2386 22.7614 15 20 15C17.2386 15 15 17.2386 15 20C15 22.7614 17.2386 25 20 25Z" fill="#FBFBFB"/>
</svg>
